<svg width="22" height="24" viewBox="0 0 22 24" fill="none" xmlns="http://www.w3.org/2000/svg">
<path d="M3.51343 6C3.51343 4.89543 4.40886 4 5.51343 4H17.2612V20H5.51343C4.40886 20 3.51343 19.1046 3.51343 18V6Z" fill="#EF4B1E"/>
<rect x="6.45947" y="9" width="14.7297" height="7" fill="#EF4B1E"/>
<path d="M21.2452 6.0005C21.0812 5.7105 20.8544 5.4575 20.605 5.3105L11.9478 0.2205C11.448 -0.0735 10.632 -0.0735 10.1331 0.2205L1.474 5.3105C0.975149 5.6035 0.567627 6.3235 0.567627 6.9105V17.0905C0.567627 17.3845 0.669753 17.7105 0.833744 18.0005C0.997735 18.2905 1.22457 18.5435 1.474 18.6905L10.1311 23.7805C10.63 24.0735 11.447 24.0735 11.9459 23.7805L20.603 18.6905C20.8524 18.5435 21.0793 18.2905 21.2433 18.0005C21.4072 17.7105 21.5084 17.3845 21.5084 17.0905V6.9105C21.5113 6.6165 21.4102 6.2905 21.2452 6.0005ZM11.0385 19.1105C7.18913 19.1105 4.05759 15.9205 4.05759 12.0005C4.05759 8.0805 7.19011 4.8905 11.0395 4.8905C12.2642 4.89287 13.4668 5.22219 14.5275 5.84562C15.5883 6.46905 16.4699 7.36479 17.0846 8.4435L14.064 10.2235C13.7569 9.68323 13.3159 9.2345 12.7852 8.92214C12.2544 8.60979 11.6525 8.44474 11.0395 8.4435C10.1133 8.44429 9.22536 8.8193 8.57048 9.4862C7.91561 10.1531 7.54735 11.0574 7.54657 12.0005C7.54787 12.9431 7.91622 13.8467 8.57083 14.5132C9.22544 15.1796 10.1129 15.5544 11.0385 15.5555C11.6513 15.5542 12.253 15.3893 12.7836 15.0773C13.3143 14.7654 13.7554 14.3172 14.063 13.7775L17.0855 15.5575C16.4706 16.6364 15.5886 17.5322 14.5275 18.1556C13.4665 18.779 12.2635 19.1083 11.0385 19.1105ZM18.0204 12.3955H17.2446V13.1855H16.4689V12.3955H15.6931V11.6055H16.4689V10.8155H17.2446V11.6055H18.0204V12.3955ZM20.929 12.3955H20.1533V13.1855H19.3775V12.3955H18.6017V11.6055H19.3775V10.8155H20.1533V11.6055H20.929V12.3955Z" fill="white"/>
</svg>
