<svg width="30" height="24" viewBox="0 0 30 24" fill="none" xmlns="http://www.w3.org/2000/svg">
<rect x="7.41138" y="5.01934" width="14.7867" height="15.058" fill="#EF4B1E"/>
<path d="M14.5214 11.0476H12.2861V7.23539H14.9379C16.3796 7.23539 17.1978 7.89041 17.1978 9.07498C17.1978 10.3399 16.2453 11.0476 14.5189 11.0476H14.5214ZM14.9206 12.5609H12.2873V16.7621H15.0364C16.8343 16.7621 17.7868 16.028 17.7868 14.6477C17.7868 13.2674 16.8072 12.5609 14.9206 12.5609ZM29.5915 11.2358V12.7642C28.2016 12.8997 27.3526 13.9488 26.8486 15.6102C26.3471 17.2653 26.2781 19.2956 26.331 20.8629C26.3865 22.4942 25.1382 24 23.4513 24H6.16072C4.47257 24 3.22432 22.4942 3.281 20.8629C3.33399 19.2956 3.26498 17.2653 2.76347 15.6102C2.25825 13.9488 1.40802 12.8997 0.0180664 12.7642V11.2358C1.40802 11.1003 2.25949 10.0512 2.76224 8.38984C3.26498 6.73471 3.33399 4.70438 3.27977 3.13709C3.22432 1.5058 4.47257 0 6.16072 0H23.4513C25.1395 0 26.3865 1.5058 26.331 3.13709C26.2781 4.70438 26.3471 6.73471 26.8486 8.38984C27.3526 10.0512 28.2016 11.1003 29.5915 11.2358ZM19.8236 14.7707C19.8236 13.0716 18.6493 11.8431 16.9057 11.6486V11.5771C18.1872 11.3651 19.1927 10.1529 19.1927 8.80017C19.1927 6.87149 17.6981 5.61539 15.4197 5.61539H10.2936V18.3796H15.4455C18.1786 18.3796 19.8236 17.0168 19.8236 14.7707Z" fill="white"/>
</svg>
