<svg width="46" height="24" viewBox="0 0 46 24" fill="none" xmlns="http://www.w3.org/2000/svg">
<path d="M6.26685 9.90099C6.26685 5.48271 9.84857 1.90099 14.2668 1.90099H31.8681C36.2864 1.90099 39.8681 5.48271 39.8681 9.90099V19.0099H6.26685V9.90099Z" fill="#EF4B1E"/>
<path d="M13.7526 8.59057H11.9904L11.029 13.6244H12.5933C13.6312 13.6244 14.4041 13.4248 14.9118 13.0275C15.4196 12.6283 15.7612 11.9648 15.9385 11.0333C16.1103 10.1399 16.0319 9.50875 15.7071 9.14186C15.3804 8.77497 14.7308 8.59057 13.7526 8.59057ZM23.0676 0C10.6967 0 0.666748 5.3722 0.666748 11.999C0.666748 18.6259 10.6967 24 23.0676 24C35.4385 24 45.4685 18.6259 45.4685 11.999C45.4685 5.3722 35.4385 0 23.0676 0ZM16.982 14.1643C16.4948 14.6395 15.9087 14.9969 15.2702 15.2117C14.643 15.417 13.8422 15.5235 12.8715 15.5235H10.6669L10.0564 18.7191H7.48408L9.78016 6.69339H14.727C16.2148 6.69339 17.2994 7.09069 17.9826 7.88721C18.6658 8.68182 18.8712 9.792 18.5986 11.2177C18.4942 11.7819 18.302 12.3255 18.0293 12.8279C17.7623 13.3126 17.4133 13.7594 16.982 14.1643ZM24.4938 15.5235L25.5074 10.2026C25.625 9.5981 25.5802 9.18368 25.3805 8.96507C25.1808 8.74455 24.7533 8.6343 24.098 8.6343H22.0596L20.7454 15.5254H18.1917L20.4878 3.49782H23.0396L22.4292 6.69529H24.7029C26.1347 6.69529 27.1203 6.95002 27.6635 7.45758C28.2067 7.96515 28.3691 8.78828 28.1545 9.92697L27.0867 15.5235H24.4938ZM38.6754 11.2177C38.5727 11.7824 38.3804 12.3262 38.106 12.8279C37.8391 13.3126 37.49 13.7594 37.0588 14.1643C36.5713 14.6381 35.9867 14.9958 35.347 15.2117C34.7198 15.417 33.919 15.5235 32.9464 15.5235H30.7436L30.1332 18.7209H27.5608L29.8569 6.69529H34.8019C36.2897 6.69529 37.3743 7.09259 38.0575 7.88911C38.7407 8.68182 38.9479 9.792 38.6754 11.2177ZM33.8312 8.59057H32.0709L31.1076 13.6244H32.672C33.7117 13.6244 34.4846 13.4248 34.9905 13.0275C35.4982 12.6283 35.8398 11.9648 36.019 11.0333C36.1908 10.1399 36.1105 9.50875 35.7857 9.14186C35.4609 8.77497 34.8075 8.59057 33.8312 8.59057Z" fill="white"/>
</svg>
