<svg width="22" height="22" viewBox="0 0 22 22" fill="none" xmlns="http://www.w3.org/2000/svg">
<ellipse cx="10.9999" cy="11.1386" rx="8.12355" ry="8.31952" transform="rotate(15 10.9999 11.1386)" fill="#EF4B1E"/>
<g filter="url(#filter0_d_105_178)">
<path d="M10.9508 2.42151C6.23845 2.42151 2.42163 6.24046 2.42163 10.9507C2.42163 14.7199 4.86525 17.9162 8.25347 19.0428C8.67993 19.1231 8.8363 18.8594 8.8363 18.6327C8.8363 18.4301 8.82919 17.8935 8.82564 17.1827C6.4531 17.6973 5.95272 16.0384 5.95272 16.0384C5.56464 15.054 5.00385 14.791 5.00385 14.791C4.23124 14.2622 5.06355 14.2728 5.06355 14.2728C5.92002 14.3325 6.36994 15.1513 6.36994 15.1513C7.13046 16.4556 8.36648 16.0789 8.85407 15.8607C8.93083 15.3091 9.15046 14.9331 9.39425 14.7199C7.50006 14.5067 5.5092 13.7732 5.5092 10.5051C5.5092 9.57395 5.83971 8.81343 6.387 8.21639C6.29104 8.00103 6.00318 7.13389 6.46163 5.95899C6.46163 5.95899 7.17595 5.73013 8.80716 6.83324C9.4895 6.64346 10.2145 6.54964 10.9395 6.54538C11.6644 6.54964 12.3894 6.64346 13.0718 6.83324C14.6923 5.73013 15.4066 5.95899 15.4066 5.95899C15.8651 7.13389 15.5772 8.00103 15.4919 8.21639C16.0357 8.81343 16.3662 9.57395 16.3662 10.5051C16.3662 13.7817 14.3725 14.5031 12.4747 14.7128C12.7732 14.9687 13.0504 15.4918 13.0504 16.2907C13.0504 17.4322 13.0398 18.3491 13.0398 18.6263C13.0398 18.8502 13.189 19.1167 13.6262 19.0314C17.0385 17.9127 19.48 14.7142 19.48 10.9507C19.48 6.24046 15.6611 2.42151 10.9508 2.42151Z" fill="white"/>
</g>
<defs>
<filter id="filter0_d_105_178" x="0.421631" y="0.421509" width="21.0583" height="20.636" filterUnits="userSpaceOnUse" color-interpolation-filters="sRGB">
<feFlood flood-opacity="0" result="BackgroundImageFix"/>
<feColorMatrix in="SourceAlpha" type="matrix" values="0 0 0 0 0 0 0 0 0 0 0 0 0 0 0 0 0 0 127 0" result="hardAlpha"/>
<feOffset/>
<feGaussianBlur stdDeviation="1"/>
<feComposite in2="hardAlpha" operator="out"/>
<feColorMatrix type="matrix" values="0 0 0 0 0.937255 0 0 0 0 0.294118 0 0 0 0 0.117647 0 0 0 1 0"/>
<feBlend mode="normal" in2="BackgroundImageFix" result="effect1_dropShadow_105_178"/>
<feBlend mode="normal" in="SourceGraphic" in2="effect1_dropShadow_105_178" result="shape"/>
</filter>
</defs>
</svg>
