<svg width="25" height="24" viewBox="0 0 25 24" fill="none" xmlns="http://www.w3.org/2000/svg">
<g clip-path="url(#clip0_105_86)">
<rect width="23.5676" height="24" transform="translate(0.882812)" fill="#EF4B1E"/>
<path d="M0.882812 0H24.4504V24H0.882812V0ZM22.5198 18.276C22.348 17.181 21.6478 16.261 19.5709 15.403C18.8482 15.058 18.0449 14.818 17.8063 14.263C17.7169 13.933 17.7032 13.753 17.7611 13.558C17.9084 12.912 18.6596 12.718 19.2488 12.898C19.6318 13.018 19.9853 13.318 20.2072 13.798C21.2226 13.122 21.2226 13.122 21.9306 12.673C21.6655 12.253 21.5339 12.072 21.3552 11.893C20.7365 11.188 19.9126 10.828 18.5722 10.859L17.8799 10.948C17.2161 11.113 16.5837 11.473 16.2007 11.953C15.0813 13.244 15.4044 15.494 16.7595 16.424C18.0999 17.444 20.0599 17.668 20.3103 18.629C20.546 19.799 19.456 20.174 18.3798 20.039C17.5834 19.859 17.1425 19.453 16.6564 18.703L14.8594 19.754C15.0656 20.234 15.3013 20.443 15.6548 20.863C17.3634 22.619 21.635 22.529 22.402 19.859C22.4304 19.769 22.6376 19.154 22.4746 18.209L22.5198 18.276ZM13.6987 11.031H11.4912C11.4912 12.969 11.4823 14.895 11.4823 16.836C11.4823 18.068 11.5442 19.199 11.3468 19.547C11.0228 20.236 10.1881 20.148 9.80903 20.027C9.42016 19.831 9.22279 19.561 8.99398 19.172C8.93212 19.067 8.88597 18.976 8.86927 18.976L7.07715 20.101C7.37666 20.731 7.81364 21.273 8.3773 21.618C9.21689 22.128 10.3452 22.293 11.5265 22.023C12.2954 21.797 12.9582 21.332 13.3049 20.612C13.8057 19.682 13.6996 18.542 13.6947 17.266C13.7065 15.212 13.6947 13.157 13.6947 11.087L13.6987 11.031Z" fill="white"/>
</g>
<defs>
<clipPath id="clip0_105_86">
<rect width="23.5676" height="24" fill="white" transform="translate(0.882812)"/>
</clipPath>
</defs>
</svg>
