<svg width="25" height="24" viewBox="0 0 25 24" fill="none" xmlns="http://www.w3.org/2000/svg">
<g clip-path="url(#clip0_105_90)">
<rect width="23.5676" height="24" transform="translate(0.765869)" fill="#EF4B1E"/>
<path d="M1.8706 0C1.25882 0 0.765869 0.502 0.765869 1.125V22.875C0.765869 23.498 1.25882 24 1.8706 24H23.2287C23.8405 24 24.3334 23.498 24.3334 22.875V1.125C24.3334 0.502 23.8405 0 23.2287 0H1.8706ZM18.9208 9.75C19.5217 9.75 20.054 9.787 20.5184 9.861C20.9565 9.92784 21.3864 10.0418 21.8009 10.201V12.659C21.6019 12.5189 21.3906 12.398 21.1695 12.298C20.9415 12.1935 20.7062 12.1066 20.4654 12.038C20.0094 11.9086 19.5385 11.8413 19.0651 11.838C18.7705 11.838 18.5024 11.866 18.2609 11.924C18.0456 11.9709 17.839 12.0526 17.6491 12.166C17.4821 12.27 17.3545 12.395 17.2632 12.54C17.1713 12.6861 17.1235 12.8565 17.1257 13.03C17.1257 13.226 17.1777 13.403 17.2789 13.559C17.381 13.715 17.5263 13.863 17.7139 14.003C17.9015 14.143 18.1293 14.279 18.3974 14.413C18.6654 14.548 18.9689 14.687 19.3067 14.829C19.7682 15.026 20.1826 15.236 20.5499 15.457C20.9171 15.679 21.2323 15.93 21.4955 16.21C21.7587 16.489 21.959 16.808 22.0984 17.167C22.2379 17.526 22.3086 17.943 22.3086 18.42C22.3086 19.077 22.1858 19.63 21.9423 20.076C21.7044 20.5159 21.3629 20.8887 20.9485 21.161C20.5019 21.4494 20.0069 21.6514 19.4883 21.757C18.9325 21.877 18.3463 21.937 17.7306 21.937C17.1246 21.9397 16.5197 21.8848 15.9237 21.773C15.4081 21.6822 14.9081 21.5161 14.439 21.28V18.65C15.3265 19.4191 16.4523 19.8441 17.6177 19.85C17.9447 19.85 18.2304 19.82 18.474 19.76C18.7185 19.7 18.9217 19.616 19.0857 19.51C19.2487 19.402 19.3705 19.276 19.452 19.13C19.5421 18.96 19.5831 18.7675 19.5702 18.5748C19.5573 18.3821 19.4912 18.197 19.3793 18.041C19.2334 17.8444 19.055 17.6752 18.852 17.541C18.6003 17.3711 18.3352 17.2226 18.0596 17.097C17.7328 16.945 17.4031 16.7997 17.0707 16.661C16.1692 16.278 15.4976 15.809 15.0547 15.256C14.6128 14.703 14.3909 14.034 14.3909 13.251C14.3909 12.637 14.5117 12.11 14.7532 11.669C14.9948 11.228 15.3228 10.865 15.7391 10.58C16.1795 10.2841 16.6684 10.0711 17.1826 9.951C17.7522 9.81426 18.3356 9.74679 18.9208 9.75ZM4.08006 9.938H13.4708V12.104H10.1006V21.75H7.43254V12.104H4.08006V9.938Z" fill="white"/>
</g>
<defs>
<clipPath id="clip0_105_90">
<rect width="23.5676" height="24" fill="white" transform="translate(0.765869)"/>
</clipPath>
</defs>
</svg>
